<svg width="21" height="24" viewBox="0 0 21 24" fill="none" xmlns="http://www.w3.org/2000/svg">
<path d="M8.25763 1.4997C8.43029 1.0566 8.72644 0.67713 9.10813 0.409938C9.48983 0.142745 9.93967 0 10.4 0C10.8603 0 11.3102 0.142745 11.6919 0.409938C12.0736 0.67713 12.3697 1.0566 12.5424 1.4997C14.2511 1.98766 15.7584 3.0446 16.8326 4.50818C17.9068 5.97176 18.4887 7.76105 18.4888 9.60124V15.2371L20.6057 18.5343C20.7218 18.715 20.7885 18.925 20.7986 19.142C20.8088 19.359 20.762 19.5748 20.6633 19.7663C20.5646 19.9578 20.4177 20.118 20.2382 20.2296C20.0588 20.3412 19.8535 20.4001 19.6443 20.4001H14.4039C14.2648 21.3997 13.7835 22.3138 13.0481 22.975C12.3128 23.6361 11.3727 24 10.4 24C9.42731 24 8.48719 23.6361 7.75185 22.975C7.01652 22.3138 6.5352 21.3997 6.39606 20.4001H1.15571C0.946508 20.4001 0.741222 20.3412 0.561753 20.2296C0.382285 20.118 0.235366 19.9578 0.136672 19.7663C0.0379778 19.5748 -0.00878872 19.359 0.00136105 19.142C0.0115108 18.925 0.0781962 18.715 0.194303 18.5343L2.31125 15.2371V9.60124C2.31125 5.73285 4.83031 2.47399 8.25763 1.4997ZM8.76607 20.4001C8.88541 20.7513 9.1067 21.0553 9.39945 21.2704C9.69219 21.4855 10.042 21.601 10.4006 21.601C10.7592 21.601 11.109 21.4855 11.4017 21.2704C11.6944 21.0553 11.9157 20.7513 12.0351 20.4001H8.76491H8.76607ZM10.4 3.60187C8.86766 3.60187 7.39809 4.23395 6.31456 5.35905C5.23104 6.48415 4.62232 8.01011 4.62232 9.60124V15.6006C4.62237 15.8376 4.55482 16.0693 4.42819 16.2665L3.31541 18.0004H17.4834L16.3707 16.2665C16.2444 16.0692 16.1773 15.8375 16.1777 15.6006V9.60124C16.1777 8.01011 15.569 6.48415 14.4854 5.35905C13.4019 4.23395 11.9323 3.60187 10.4 3.60187Z" fill="black"/>
</svg>
