<?xml version="1.0" encoding="UTF-8"?>
<!DOCTYPE svg PUBLIC "-//W3C//DTD SVG 1.1//EN" "http://www.w3.org/Graphics/SVG/1.1/DTD/svg11.dtd">
<!-- Creator: CorelDRAW -->
<svg xmlns="http://www.w3.org/2000/svg" xml:space="preserve" width="2048px" height="2048px" style="shape-rendering:geometricPrecision; text-rendering:geometricPrecision; image-rendering:optimizeQuality; fill-rule:evenodd; clip-rule:evenodd"
viewBox="0 0 2048 2048"
 xmlns:xlink="http://www.w3.org/1999/xlink">
 <defs>
  <style type="text/css">
   <![CDATA[
    .fil0 {fill:none}
    .fil2 {fill:#212121}
    .fil1 {fill:#212121;fill-rule:nonzero}
   ]]>
  </style>
 </defs>
 <g id="Layer_x0020_1">
  <metadata id="CorelCorpID_0Corel-Layer"/>
  <rect class="fil0" width="2048" height="2048"/>
  <g id="_445079640">
   <rect id="_445080840" class="fil0" x="255.996" y="255.996" width="1536" height="1536"/>
   <g>
    <path id="_445084176" class="fil1" d="M1024 257.442c211.975,0 403.933,85.8036 542.924,224.525 139.054,138.784 225.063,330.429 225.063,542.033 0,211.604 -86.0091,403.249 -225.063,542.033 -138.991,138.722 -330.949,224.525 -542.924,224.525 -211.975,0 -403.933,-85.8036 -542.924,-224.525 -139.054,-138.784 -225.063,-330.429 -225.063,-542.033 0,-211.604 86.0091,-403.249 225.063,-542.033 138.991,-138.722 330.949,-224.525 542.924,-224.525zm499.725 267.964c-127.847,-127.598 -304.525,-206.524 -499.725,-206.524 -195.2,0 -371.877,78.926 -499.725,206.524 -127.782,127.537 -206.821,303.814 -206.821,498.594 0,194.78 79.0382,371.058 206.821,498.594 127.847,127.598 304.525,206.524 499.725,206.524 195.2,0 371.877,-78.926 499.725,-206.524 127.782,-127.537 206.821,-303.814 206.821,-498.594 0,-194.78 -79.0382,-371.058 -206.821,-498.594z"/>
    <g>
     <path id="_445080960" class="fil1" d="M1054.72 415.323c0,-16.9665 -13.7551,-30.7205 -30.7205,-30.7205 -16.9654,0 -30.7205,13.7539 -30.7205,30.7205l0 122.877c0,16.9654 13.7551,30.7205 30.7205,30.7205 16.9654,0 30.7205,-13.7551 30.7205,-30.7205l0 -122.877z"/>
     <path id="_445083624" class="fil1" d="M1054.72 1515.51c0,-16.9665 -13.7551,-30.7205 -30.7205,-30.7205 -16.9654,0 -30.7205,13.7539 -30.7205,30.7205l0 122.877c0,16.9654 13.7551,30.7193 30.7205,30.7193 16.9654,0 30.7205,-13.7539 30.7205,-30.7193l0 -122.877z"/>
     <path id="_445081128" class="fil1" d="M1478.14 616.156c11.9941,-11.9941 11.9941,-31.4445 0,-43.4386 -11.9953,-11.9953 -31.4457,-11.9953 -43.4398,0l-86.8879 86.8867c-11.9941,11.9953 -11.9941,31.4445 0,43.4398 11.9953,11.9953 31.4445,11.9953 43.4398,0l86.8879 -86.8879z"/>
     <path id="_445075704" class="fil1" d="M700.19 1394.11c11.9941,-11.9941 11.9941,-31.4445 0,-43.4386 -11.9953,-11.9953 -31.4457,-11.9953 -43.4398,0l-86.889 86.8879c-11.9941,11.9953 -11.9941,31.4445 0,43.4398 11.9953,11.9941 31.4457,11.9941 43.4398,0l86.889 -86.889z"/>
     <path id="_445082184" class="fil1" d="M1635.53 1057.58c16.9665,0 30.7205,-13.7551 30.7205,-30.7205 0,-16.9654 -13.7539,-30.7205 -30.7205,-30.7205l-122.877 0c-16.9654,0 -30.7193,13.7551 -30.7193,30.7205 0,16.9654 13.7539,30.7205 30.7193,30.7205l122.877 0z"/>
     <path id="_445080936" class="fil1" d="M535.346 1057.58c16.9654,0 30.7193,-13.7551 30.7193,-30.7205 0,-16.9654 -13.7539,-30.7205 -30.7193,-30.7205l-122.878 0c-16.9665,0 -30.7205,13.7551 -30.7205,30.7205 0,16.9654 13.7539,30.7205 30.7205,30.7205l122.878 0z"/>
     <path id="_445082832" class="fil1" d="M1434.7 1481c11.9941,11.9941 31.4445,11.9941 43.4398,0 11.9941,-11.9953 11.9941,-31.4445 0,-43.4398l-86.889 -86.8879c-11.9941,-11.9953 -31.4445,-11.9953 -43.4398,0 -11.9941,11.9941 -11.9941,31.4445 0,43.4386l86.889 86.889z"/>
     <path id="_445072560" class="fil1" d="M656.749 703.045c11.9941,11.9941 31.4445,11.9941 43.4398,0 11.9941,-11.9953 11.9941,-31.4445 0,-43.4398l-86.889 -86.8879c-11.9941,-11.9953 -31.4445,-11.9953 -43.4398,0 -11.9941,11.9941 -11.9941,31.4445 0,43.4386l86.889 86.889z"/>
     <path id="_445075728" class="fil1" d="M1054.72 655.366c0,-16.9665 -13.7551,-30.7205 -30.7205,-30.7205 -16.9654,0 -30.7205,13.7539 -30.7205,30.7205l0 368.634c0,16.9654 13.7551,30.7205 30.7205,30.7205l337.914 0c16.9654,0 30.7193,-13.7551 30.7193,-30.7205 0,-16.9654 -13.7539,-30.7205 -30.7193,-30.7205l-307.193 0 0 -337.914z"/>
     <ellipse id="_445078344" class="fil2" cx="1024" cy="1024" rx="79.0075" ry="79.0075"/>
    </g>
   </g>
  </g>
 </g>
</svg>
